<svg width="52" height="16" viewBox="0 0 52 16" fill="none" xmlns="http://www.w3.org/2000/svg">
<rect width="52" height="16" fill="#DCDCDC"/>
<path d="M8.3916 7.25V7.64062C8.3916 8.17773 8.32161 8.65951 8.18164 9.08594C8.04167 9.51237 7.84147 9.87533 7.58105 10.1748C7.32389 10.4743 7.01465 10.7038 6.65332 10.8633C6.29199 11.0195 5.8916 11.0977 5.45215 11.0977C5.01595 11.0977 4.61719 11.0195 4.25586 10.8633C3.89779 10.7038 3.58691 10.4743 3.32324 10.1748C3.05957 9.87533 2.85449 9.51237 2.70801 9.08594C2.56478 8.65951 2.49316 8.17773 2.49316 7.64062V7.25C2.49316 6.71289 2.56478 6.23275 2.70801 5.80957C2.85124 5.38314 3.05306 5.02018 3.31348 4.7207C3.57715 4.41797 3.88802 4.18848 4.24609 4.03223C4.60742 3.87272 5.00618 3.79297 5.44238 3.79297C5.88184 3.79297 6.28223 3.87272 6.64355 4.03223C7.00488 4.18848 7.31576 4.41797 7.57617 4.7207C7.83659 5.02018 8.03678 5.38314 8.17676 5.80957C8.31999 6.23275 8.3916 6.71289 8.3916 7.25ZM7.16602 7.64062V7.24023C7.16602 6.8431 7.12695 6.49316 7.04883 6.19043C6.97396 5.88444 6.86165 5.62891 6.71191 5.42383C6.56543 5.21549 6.38477 5.05924 6.16992 4.95508C5.95508 4.84766 5.71257 4.79395 5.44238 4.79395C5.1722 4.79395 4.93132 4.84766 4.71973 4.95508C4.50814 5.05924 4.32747 5.21549 4.17773 5.42383C4.03125 5.62891 3.91895 5.88444 3.84082 6.19043C3.7627 6.49316 3.72363 6.8431 3.72363 7.24023V7.64062C3.72363 8.03776 3.7627 8.38932 3.84082 8.69531C3.91895 9.0013 4.03288 9.26009 4.18262 9.47168C4.33561 9.68001 4.5179 9.83789 4.72949 9.94531C4.94108 10.0495 5.18197 10.1016 5.45215 10.1016C5.72559 10.1016 5.9681 10.0495 6.17969 9.94531C6.39128 9.83789 6.57031 9.68001 6.7168 9.47168C6.86328 9.26009 6.97396 9.0013 7.04883 8.69531C7.12695 8.38932 7.16602 8.03776 7.16602 7.64062ZM11.9512 5.7168V11H10.7695V5.7168H11.9512ZM13.6846 5.7168V6.64453H9.06543V5.7168H13.6846ZM15.7402 5.7168V11H14.5635V5.7168H15.7402ZM19.1875 5.7168L16.8096 8.89551H15.4668L15.3105 7.83105H16.292L17.7178 5.7168H19.1875ZM17.8105 11L16.2188 8.69531L17.1465 8.02637L19.3584 11H17.8105ZM23.5479 5.7168V6.6543H20.9697V5.7168H23.5479ZM24.4707 5.7168V11H23.2939V5.7168H24.4707ZM20.6816 5.7168H21.8438L21.7021 8.3291C21.6826 8.71647 21.6436 9.05827 21.585 9.35449C21.5296 9.64746 21.4548 9.89974 21.3604 10.1113C21.266 10.3197 21.1504 10.4889 21.0137 10.6191C20.877 10.7493 20.7174 10.8454 20.5352 10.9072C20.3529 10.9691 20.1478 11 19.9199 11H19.5537L19.5488 10.0332L19.7344 10.0186C19.8548 10.0088 19.959 9.97786 20.0469 9.92578C20.1348 9.87044 20.2096 9.79232 20.2715 9.69141C20.3366 9.59049 20.3887 9.46029 20.4277 9.30078C20.4701 9.14128 20.5026 8.95247 20.5254 8.73438C20.5514 8.51628 20.571 8.26237 20.584 7.97266L20.6816 5.7168ZM28.8311 7.85059V8.78809H25.999V7.85059H28.8311ZM27.0049 5.7168V11H25.8281V5.7168H27.0049ZM27.9619 8.41699V8.30469C27.9619 7.92383 28.0173 7.57064 28.1279 7.24512C28.2386 6.91634 28.3997 6.63151 28.6113 6.39062C28.8229 6.14648 29.0801 5.95768 29.3828 5.82422C29.6855 5.6875 30.029 5.61914 30.4131 5.61914C30.8037 5.61914 31.1504 5.6875 31.4531 5.82422C31.7591 5.95768 32.0179 6.14648 32.2295 6.39062C32.4411 6.63151 32.6022 6.91634 32.7129 7.24512C32.8236 7.57064 32.8789 7.92383 32.8789 8.30469V8.41699C32.8789 8.79785 32.8236 9.15104 32.7129 9.47656C32.6022 9.80208 32.4411 10.0869 32.2295 10.3311C32.0212 10.5719 31.764 10.7607 31.458 10.8975C31.1553 11.0309 30.8102 11.0977 30.4229 11.0977C30.0355 11.0977 29.6904 11.0309 29.3877 10.8975C29.085 10.7607 28.8262 10.5719 28.6113 10.3311C28.3997 10.0869 28.2386 9.80208 28.1279 9.47656C28.0173 9.15104 27.9619 8.79785 27.9619 8.41699ZM29.1436 8.30469V8.41699C29.1436 8.65462 29.168 8.87923 29.2168 9.09082C29.2656 9.30241 29.3421 9.48796 29.4463 9.64746C29.5505 9.80697 29.6839 9.93229 29.8467 10.0234C30.0094 10.1146 30.2015 10.1602 30.4229 10.1602C30.6442 10.1602 30.8346 10.1146 30.9941 10.0234C31.1569 9.93229 31.2904 9.80697 31.3945 9.64746C31.4987 9.48796 31.5752 9.30241 31.624 9.09082C31.6761 8.87923 31.7021 8.65462 31.7021 8.41699V8.30469C31.7021 8.07031 31.6761 7.84896 31.624 7.64062C31.5752 7.42904 31.4987 7.24186 31.3945 7.0791C31.2904 6.91634 31.1569 6.78939 30.9941 6.69824C30.8314 6.60384 30.6377 6.55664 30.4131 6.55664C30.195 6.55664 30.0046 6.60384 29.8418 6.69824C29.6823 6.78939 29.5505 6.91634 29.4463 7.0791C29.3421 7.24186 29.2656 7.42904 29.2168 7.64062C29.168 7.84896 29.1436 8.07031 29.1436 8.30469ZM38.0986 5.7168V11H36.9219V5.7168H38.0986ZM37.6006 8.05566V8.98828C37.4574 9.05013 37.2962 9.1071 37.1172 9.15918C36.9414 9.20801 36.7559 9.2487 36.5605 9.28125C36.3652 9.31055 36.1683 9.3252 35.9697 9.3252C35.5042 9.3252 35.1022 9.25358 34.7637 9.11035C34.4284 8.96712 34.1696 8.7474 33.9873 8.45117C33.8083 8.15169 33.7188 7.77246 33.7188 7.31348V5.71191H34.8906V7.31348C34.8906 7.57715 34.9297 7.78711 35.0078 7.94336C35.0892 8.09961 35.2096 8.21191 35.3691 8.28027C35.5286 8.34863 35.7288 8.38281 35.9697 8.38281C36.1715 8.38281 36.362 8.36979 36.541 8.34375C36.7201 8.31445 36.8975 8.27539 37.0732 8.22656C37.249 8.17773 37.4248 8.12077 37.6006 8.05566ZM41.6826 11.0977C41.292 11.0977 40.9388 11.0342 40.623 10.9072C40.3105 10.777 40.0436 10.5964 39.8223 10.3652C39.6042 10.1341 39.4365 9.8623 39.3193 9.5498C39.2021 9.2373 39.1436 8.90039 39.1436 8.53906V8.34375C39.1436 7.93034 39.2038 7.55599 39.3242 7.2207C39.4447 6.88542 39.6123 6.59896 39.8271 6.36133C40.042 6.12044 40.2959 5.93652 40.5889 5.80957C40.8818 5.68262 41.1992 5.61914 41.541 5.61914C41.9186 5.61914 42.249 5.68262 42.5322 5.80957C42.8154 5.93652 43.0498 6.11556 43.2354 6.34668C43.4242 6.57454 43.5641 6.84635 43.6553 7.16211C43.7497 7.47786 43.7969 7.82617 43.7969 8.20703V8.70996H39.7148V7.86523H42.6348V7.77246C42.6283 7.56087 42.5859 7.3623 42.5078 7.17676C42.4329 6.99121 42.3174 6.84147 42.1611 6.72754C42.0049 6.61361 41.7965 6.55664 41.5361 6.55664C41.3408 6.55664 41.1667 6.59896 41.0137 6.68359C40.8639 6.76497 40.7386 6.88379 40.6377 7.04004C40.5368 7.19629 40.4587 7.38509 40.4033 7.60645C40.3512 7.82454 40.3252 8.07031 40.3252 8.34375V8.53906C40.3252 8.77018 40.3561 8.98503 40.418 9.18359C40.4831 9.37891 40.5775 9.5498 40.7012 9.69629C40.8249 9.84277 40.9746 9.95833 41.1504 10.043C41.3262 10.1243 41.5264 10.165 41.751 10.165C42.0342 10.165 42.2865 10.1081 42.5078 9.99414C42.7292 9.88021 42.9212 9.71908 43.084 9.51074L43.7041 10.1113C43.5902 10.2773 43.4421 10.4368 43.2598 10.5898C43.0775 10.7396 42.8545 10.8617 42.5908 10.9561C42.3304 11.0505 42.0277 11.0977 41.6826 11.0977ZM48.3232 7.92383V8.85156H45.5889V7.92383H48.3232ZM45.9307 5.7168V11H44.7539V5.7168H45.9307ZM49.1729 5.7168V11H47.9961V5.7168H49.1729Z" fill="#1A1A1A"/>
</svg>
