<svg width="48" height="16" viewBox="0 0 48 16" fill="none" xmlns="http://www.w3.org/2000/svg">
<rect x="0.5" width="47" height="16" rx="2" fill="#008900"/>
<path d="M5.88867 7.78711H4.07715L4.06738 6.89355H5.64941C5.91634 6.89355 6.14258 6.85449 6.32812 6.77637C6.51693 6.69499 6.66016 6.57943 6.75781 6.42969C6.85547 6.27669 6.9043 6.09277 6.9043 5.87793C6.9043 5.6403 6.85872 5.44661 6.76758 5.29688C6.67643 5.14714 6.53646 5.03809 6.34766 4.96973C6.16211 4.90137 5.92448 4.86719 5.63477 4.86719H4.44824V11H3.22266V3.89062H5.63477C6.02539 3.89062 6.3737 3.92806 6.67969 4.00293C6.98893 4.0778 7.25098 4.19499 7.46582 4.35449C7.68392 4.51074 7.84831 4.70931 7.95898 4.9502C8.07292 5.19108 8.12988 5.47754 8.12988 5.80957C8.12988 6.10254 8.0599 6.37109 7.91992 6.61523C7.77995 6.85612 7.57324 7.05306 7.2998 7.20605C7.02637 7.35905 6.6862 7.4502 6.2793 7.47949L5.88867 7.78711ZM5.83496 11H3.69141L4.24316 10.0283H5.83496C6.11165 10.0283 6.34277 9.98275 6.52832 9.8916C6.71387 9.7972 6.85221 9.66862 6.94336 9.50586C7.03776 9.33984 7.08496 9.14616 7.08496 8.9248C7.08496 8.69368 7.04427 8.49349 6.96289 8.32422C6.88151 8.15169 6.75293 8.01986 6.57715 7.92871C6.40137 7.83431 6.17188 7.78711 5.88867 7.78711H4.51172L4.52148 6.89355H6.31348L6.5918 7.23047C6.98242 7.24349 7.30306 7.32975 7.55371 7.48926C7.80762 7.64876 7.99642 7.85547 8.12012 8.10938C8.24382 8.36328 8.30566 8.63672 8.30566 8.92969C8.30566 9.38216 8.20638 9.76139 8.00781 10.0674C7.8125 10.3734 7.53092 10.6061 7.16309 10.7656C6.79525 10.9219 6.35254 11 5.83496 11ZM10.6934 5.7168V11H9.5166V5.7168H10.6934ZM14.1406 5.7168L11.7627 8.89551H10.4199L10.2637 7.83105H11.2451L12.6709 5.7168H14.1406ZM12.7637 11L11.1719 8.69531L12.0996 8.02637L14.3115 11H12.7637ZM18.501 5.7168V6.6543H15.9229V5.7168H18.501ZM19.4238 5.7168V11H18.2471V5.7168H19.4238ZM15.6348 5.7168H16.7969L16.6553 8.3291C16.6357 8.71647 16.5967 9.05827 16.5381 9.35449C16.4827 9.64746 16.4079 9.89974 16.3135 10.1113C16.2191 10.3197 16.1035 10.4889 15.9668 10.6191C15.8301 10.7493 15.6706 10.8454 15.4883 10.9072C15.306 10.9691 15.1009 11 14.873 11H14.5068L14.502 10.0332L14.6875 10.0186C14.8079 10.0088 14.9121 9.97786 15 9.92578C15.0879 9.87044 15.1628 9.79232 15.2246 9.69141C15.2897 9.59049 15.3418 9.46029 15.3809 9.30078C15.4232 9.14128 15.4557 8.95247 15.4785 8.73438C15.5046 8.51628 15.5241 8.26237 15.5371 7.97266L15.6348 5.7168ZM23.7842 7.85059V8.78809H20.9521V7.85059H23.7842ZM21.958 5.7168V11H20.7812V5.7168H21.958ZM22.915 8.41699V8.30469C22.915 7.92383 22.9704 7.57064 23.0811 7.24512C23.1917 6.91634 23.3529 6.63151 23.5645 6.39062C23.776 6.14648 24.0332 5.95768 24.3359 5.82422C24.6387 5.6875 24.9821 5.61914 25.3662 5.61914C25.7568 5.61914 26.1035 5.6875 26.4062 5.82422C26.7122 5.95768 26.971 6.14648 27.1826 6.39062C27.3942 6.63151 27.5553 6.91634 27.666 7.24512C27.7767 7.57064 27.832 7.92383 27.832 8.30469V8.41699C27.832 8.79785 27.7767 9.15104 27.666 9.47656C27.5553 9.80208 27.3942 10.0869 27.1826 10.3311C26.9743 10.5719 26.7171 10.7607 26.4111 10.8975C26.1084 11.0309 25.7633 11.0977 25.376 11.0977C24.9886 11.0977 24.6436 11.0309 24.3408 10.8975C24.0381 10.7607 23.7793 10.5719 23.5645 10.3311C23.3529 10.0869 23.1917 9.80208 23.0811 9.47656C22.9704 9.15104 22.915 8.79785 22.915 8.41699ZM24.0967 8.30469V8.41699C24.0967 8.65462 24.1211 8.87923 24.1699 9.09082C24.2188 9.30241 24.2952 9.48796 24.3994 9.64746C24.5036 9.80697 24.637 9.93229 24.7998 10.0234C24.9626 10.1146 25.1546 10.1602 25.376 10.1602C25.5973 10.1602 25.7878 10.1146 25.9473 10.0234C26.11 9.93229 26.2435 9.80697 26.3477 9.64746C26.4518 9.48796 26.5283 9.30241 26.5771 9.09082C26.6292 8.87923 26.6553 8.65462 26.6553 8.41699V8.30469C26.6553 8.07031 26.6292 7.84896 26.5771 7.64062C26.5283 7.42904 26.4518 7.24186 26.3477 7.0791C26.2435 6.91634 26.11 6.78939 25.9473 6.69824C25.7845 6.60384 25.5908 6.55664 25.3662 6.55664C25.1481 6.55664 24.9577 6.60384 24.7949 6.69824C24.6354 6.78939 24.5036 6.91634 24.3994 7.0791C24.2952 7.24186 24.2188 7.42904 24.1699 7.64062C24.1211 7.84896 24.0967 8.07031 24.0967 8.30469ZM33.0518 5.7168V11H31.875V5.7168H33.0518ZM32.5537 8.05566V8.98828C32.4105 9.05013 32.2493 9.1071 32.0703 9.15918C31.8945 9.20801 31.709 9.2487 31.5137 9.28125C31.3184 9.31055 31.1214 9.3252 30.9229 9.3252C30.4574 9.3252 30.0553 9.25358 29.7168 9.11035C29.3815 8.96712 29.1227 8.7474 28.9404 8.45117C28.7614 8.15169 28.6719 7.77246 28.6719 7.31348V5.71191H29.8438V7.31348C29.8438 7.57715 29.8828 7.78711 29.9609 7.94336C30.0423 8.09961 30.1628 8.21191 30.3223 8.28027C30.4818 8.34863 30.682 8.38281 30.9229 8.38281C31.1247 8.38281 31.3151 8.36979 31.4941 8.34375C31.6732 8.31445 31.8506 8.27539 32.0264 8.22656C32.2021 8.17773 32.3779 8.12077 32.5537 8.05566ZM36.6357 11.0977C36.2451 11.0977 35.8919 11.0342 35.5762 10.9072C35.2637 10.777 34.9967 10.5964 34.7754 10.3652C34.5573 10.1341 34.3896 9.8623 34.2725 9.5498C34.1553 9.2373 34.0967 8.90039 34.0967 8.53906V8.34375C34.0967 7.93034 34.1569 7.55599 34.2773 7.2207C34.3978 6.88542 34.5654 6.59896 34.7803 6.36133C34.9951 6.12044 35.249 5.93652 35.542 5.80957C35.835 5.68262 36.1523 5.61914 36.4941 5.61914C36.8717 5.61914 37.2021 5.68262 37.4854 5.80957C37.7686 5.93652 38.0029 6.11556 38.1885 6.34668C38.3773 6.57454 38.5173 6.84635 38.6084 7.16211C38.7028 7.47786 38.75 7.82617 38.75 8.20703V8.70996H34.668V7.86523H37.5879V7.77246C37.5814 7.56087 37.5391 7.3623 37.4609 7.17676C37.3861 6.99121 37.2705 6.84147 37.1143 6.72754C36.958 6.61361 36.7497 6.55664 36.4893 6.55664C36.2939 6.55664 36.1198 6.59896 35.9668 6.68359C35.8171 6.76497 35.6917 6.88379 35.5908 7.04004C35.4899 7.19629 35.4118 7.38509 35.3564 7.60645C35.3044 7.82454 35.2783 8.07031 35.2783 8.34375V8.53906C35.2783 8.77018 35.3092 8.98503 35.3711 9.18359C35.4362 9.37891 35.5306 9.5498 35.6543 9.69629C35.778 9.84277 35.9277 9.95833 36.1035 10.043C36.2793 10.1243 36.4795 10.165 36.7041 10.165C36.9873 10.165 37.2396 10.1081 37.4609 9.99414C37.6823 9.88021 37.8743 9.71908 38.0371 9.51074L38.6572 10.1113C38.5433 10.2773 38.3952 10.4368 38.2129 10.5898C38.0306 10.7396 37.8076 10.8617 37.5439 10.9561C37.2835 11.0505 36.9808 11.0977 36.6357 11.0977ZM43.2764 7.92383V8.85156H40.542V7.92383H43.2764ZM40.8838 5.7168V11H39.707V5.7168H40.8838ZM44.126 5.7168V11H42.9492V5.7168H44.126Z" fill="#F0F0F0"/>
</svg>
